<svg height="512" viewBox="0 0 512 512" width="512" xmlns="http://www.w3.org/2000/svg"><g id="filled_outline" data-name="filled outline"><path d="m376 96h80v192h-80z" fill="#48bdff"/><path d="m376 96h80v192h-80z" fill="#48bdff"/><path d="m440 96v160a16 16 0 0 1 -16 16h-48v16h80v-192z" fill="#3ba4f2"/><path d="m312 88h79.974v208h-79.974z" fill="#ff9f03"/><path d="m455.974 80h32.026v224h-32.026z" fill="#fdc47d"/><path d="m479.974 80v200a16 16 0 0 1 -16 16h-8v8h32.026v-224z" fill="#ffb769"/><path d="m376 88v176a16 16 0 0 1 -16 16h-48v16h80v-208z" fill="#ff891f"/><path d="m248 80h79.974v224h-79.974z" fill="#ffcd01"/><path d="m312 80v192a16 16 0 0 1 -16 16h-48v16h80v-224z" fill="#ffba01"/><path d="m184 72h79.948v240h-79.948z" fill="#3bdabe"/><path d="m248 72v208a16 16 0 0 1 -16 16h-48v16h80v-240z" fill="#38c1a7"/><path d="m120 64h79.948v256h-79.948z" fill="#8726e2"/><path d="m184 64v224a16 16 0 0 1 -16 16h-48v16h80v-256z" fill="#691daf"/><g fill="#ff2b63"><path d="m56 56h79.974v272h-79.974z"/><circle cx="456" cy="392" r="32"/><circle cx="56" cy="456" r="32"/></g><path d="m476.6 367.519a46.5 46.5 0 0 1 -46.1 40.481c-.751 0-1.5-.021-2.241-.057a32 32 0 1 0 48.34-40.424z" fill="#e5235f"/><path d="m76.6 432a46.5 46.5 0 0 1 -46.1 40.481c-.751 0-1.5-.021-2.241-.056a32 32 0 1 0 48.341-40.425z" fill="#e5235f"/><path d="m120 56v240a16 16 0 0 1 -16 16h-48v16h80v-272z" fill="#e5235f"/><path d="m24 24h47.974v336h-47.974z" fill="#fdc47d"/><path d="m56 24v304a16 16 0 0 1 -16 16h-16v16h47.974v-336z" fill="#ffb769"/><circle cx="103.974" cy="296" r="8"/><circle cx="103.974" cy="88" r="8"/><circle cx="295.974" cy="272" r="8"/><circle cx="295.974" cy="112" r="8"/><circle cx="359.974" cy="120" r="8"/><circle cx="359.974" cy="264" r="8"/><circle cx="167.948" cy="96" r="8"/><circle cx="167.948" cy="288" r="8"/><circle cx="231.948" cy="104" r="8"/><circle cx="231.948" cy="280" r="8"/><circle cx="423.974" cy="128" r="8"/><circle cx="423.974" cy="256" r="8"/><path d="m456 352a40.068 40.068 0 0 0 -39.195 32h-392.805a8 8 0 0 0 0 16h392.805a40 40 0 1 0 39.195-48zm0 64a24 24 0 1 1 24-24 24.028 24.028 0 0 1 -24 24z"/><path d="m488 72h-32.026a8 8 0 0 0 -8 8v8h-48a8 8 0 0 0 -8-8h-56a8 8 0 0 0 -8-8h-56.026a8 8 0 0 0 -8-8h-56a8 8 0 0 0 -8-8h-55.974a8 8 0 0 0 -8-8h-56v-24a8 8 0 0 0 -8-8h-47.974a8 8 0 0 0 -8 8v336a8 8 0 0 0 8 8h47.974a8 8 0 0 0 8-8v-24h56a8 8 0 0 0 8-8h55.974a8 8 0 0 0 8-8h56a8 8 0 0 0 8-8h56.026a8 8 0 0 0 8-8h56a8 8 0 0 0 8-8h48v8a8 8 0 0 0 8 8h32.026a8 8 0 0 0 8-8v-224a8 8 0 0 0 -8-8zm-424.026 280h-31.974v-320h31.974zm16-32v-256h47.974c0 .176.015.349.026.522v254.956c-.011.173-.026.346-.026.522zm64-8v-240h47.974v240zm111.974-8h-48v-224h48zm16-8v-208h48.026v208zm112.026-8h-48v-192h48zm16-8v-176h48v176zm80.026 16h-16.026v-208h16.026z"/><path d="m488 448h-392.8a40 40 0 1 0 0 16h392.8a8 8 0 0 0 0-16zm-432 32a24 24 0 1 1 24-24 24.028 24.028 0 0 1 -24 24z"/></g></svg>