<?xml version="1.0" encoding="iso-8859-1"?>
<!-- Generator: Adobe Illustrator 19.0.0, SVG Export Plug-In . SVG Version: 6.00 Build 0)  -->
<svg version="1.1" id="Capa_1" xmlns="http://www.w3.org/2000/svg" xmlns:xlink="http://www.w3.org/1999/xlink" x="0px" y="0px"
	 viewBox="0 0 512 512" style="enable-background:new 0 0 512 512;" xml:space="preserve">
<g>
	<path style="fill:#EA7F49;" d="M494.256,340.11c-5.995-7.374-12.395-12.362-12.395-12.362l-90.057-22.642l-90.057,22.642
		c0,0-6.4,4.988-12.395,12.362c-7.572,9.314-0.832,23.258,11.171,23.258h182.563C495.088,363.369,501.828,349.424,494.256,340.11z"
		/>
	<rect x="197.51" y="251.169" style="fill:#EA7F49;" width="116.98" height="41.994"/>
	<path style="fill:#EA7F49;" d="M17.744,340.11c5.995-7.374,12.395-12.362,12.395-12.362l90.057-22.642l90.057,22.642
		c0,0,6.4,4.988,12.395,12.362c7.571,9.314,0.832,23.258-11.171,23.258H28.915C16.912,363.369,10.173,349.424,17.744,340.11z"/>
</g>
<path style="fill:#E8742E;" d="M47.744,340.11c5.995-7.374,12.395-12.362,12.395-12.362l75.057-18.871l-15-3.771l-90.057,22.643
	c0,0-6.4,4.988-12.395,12.362c-7.571,9.314-0.832,23.259,11.171,23.259h30C46.912,363.369,40.173,349.424,47.744,340.11z"/>
<g>
	<path style="fill:#596674;" d="M391.802,169.938l-112.698,21.307c0,12.225,1.358,21.574,3.406,29.964l109.294,18.644
		l109.291-18.644c2.047-8.39,3.406-17.738,3.406-29.964L391.802,169.938z"/>
	<path style="fill:#596674;" d="M120.198,169.938l112.698,21.307c0,12.225-1.358,21.574-3.406,29.964l-109.294,18.644
		l-109.29-18.644C8.859,212.818,7.5,203.47,7.5,191.244L120.198,169.938z"/>
</g>
<g>
	<path style="fill:#364E66;" d="M40.906,221.208c-2.047-8.39-3.406-17.738-3.406-29.964l97.698-18.471l-15-2.836L7.5,191.245
		c0,12.225,1.358,21.574,3.406,29.964l109.291,18.644l15-2.559L40.906,221.208z"/>
	<path style="fill:#364E66;" d="M312.51,221.208c-2.047-8.39-3.406-17.738-3.406-29.964l97.698-18.471l-15-2.836l-112.698,21.307
		c0,12.225,1.358,21.574,3.406,29.964l109.291,18.644l15-2.559L312.51,221.208z"/>
</g>
<path style="fill:#EFEDEE;" d="M468.708,148.63H314.9c-19.768,0-35.792,16.025-35.792,35.792v6.822H504.5v-6.822
	C504.5,164.655,488.475,148.63,468.708,148.63z"/>
<path style="fill:#E8742E;" d="M319.348,340.11c5.995-7.374,12.395-12.362,12.395-12.362l75.057-18.871l-15-3.771l-90.057,22.642
	c0,0-6.4,4.988-12.395,12.362c-7.571,9.314-0.832,23.259,11.171,23.259h30C318.516,363.369,311.777,349.424,319.348,340.11z"/>
<path style="fill:#FAE076;" d="M501.094,221.208c-6.322,25.899-19.237,42.668-19.237,106.541h-180.11
	c0-63.872-12.914-80.642-19.237-106.541H501.094z"/>
<path style="fill:#EFEDEE;" d="M43.293,148.63h153.808c19.768,0,35.792,16.025,35.792,35.792v6.822H7.5v-6.822
	C7.5,164.655,23.525,148.63,43.293,148.63z"/>
<path style="fill:#D2D2D2;" d="M73.293,148.63h-30c-19.768,0-35.792,16.025-35.792,35.792v6.822h30v-6.822
	C37.5,164.655,53.525,148.63,73.293,148.63z"/>
<path style="fill:#E8742E;" d="M251.641,251.172h-54.132v41.994h44.44C244.058,274.253,247.848,262.422,251.641,251.172z"/>
<path style="fill:#FAE076;" d="M10.906,221.208c6.322,25.899,19.237,42.668,19.237,106.541h180.111
	c0-63.872,12.914-80.642,19.237-106.541H10.906z"/>
<path style="fill:#EDBD4E;" d="M10.906,221.208c6.322,25.899,19.237,42.668,19.237,106.541h30
	c0-63.872-12.914-80.642-19.237-106.541H10.906z"/>
<path style="fill:#D2D2D2;" d="M344.897,148.63h-30c-19.768,0-35.792,16.025-35.792,35.792v6.822h30v-6.822
	C309.104,164.655,325.129,148.63,344.897,148.63z"/>
<path style="fill:#EDBD4E;" d="M282.51,221.208c6.322,25.899,19.237,42.668,19.237,106.541h30
	c0-63.872-12.914-80.642-19.237-106.541H282.51z"/>
<path d="M334.145,250.485c-4.142,0-7.5,3.358-7.5,7.5v10.435c0,4.142,3.358,7.5,7.5,7.5s7.5-3.358,7.5-7.5v-10.435
	C341.645,253.843,338.287,250.485,334.145,250.485z"/>
<path d="M449.459,250.485c-4.142,0-7.5,3.358-7.5,7.5v10.435c0,4.142,3.358,7.5,7.5,7.5s7.5-3.358,7.5-7.5v-10.435
	C456.959,253.843,453.602,250.485,449.459,250.485z"/>
<path d="M410.969,262.047c-3.118-2.727-7.856-2.409-10.583,0.71c-2.073,2.372-5.202,3.732-8.583,3.732s-6.51-1.36-8.583-3.732
	c-2.727-3.119-7.465-3.438-10.583-0.711c-3.119,2.726-3.438,7.464-0.711,10.583c4.922,5.631,12.167,8.861,19.877,8.861
	s14.955-3.229,19.877-8.86C414.406,269.511,414.087,264.773,410.969,262.047z"/>
<path d="M177.855,275.92c4.142,0,7.5-3.358,7.5-7.5v-10.435c0-4.142-3.358-7.5-7.5-7.5s-7.5,3.358-7.5,7.5v10.435
	C170.355,272.562,173.713,275.92,177.855,275.92z"/>
<path d="M62.542,275.92c4.142,0,7.5-3.358,7.5-7.5v-10.435c0-4.142-3.358-7.5-7.5-7.5s-7.5,3.358-7.5,7.5v10.435
	C55.042,272.562,58.399,275.92,62.542,275.92z"/>
<path d="M120.198,281.489c7.71,0,14.956-3.229,19.877-8.86c2.727-3.119,2.408-7.856-0.71-10.583
	c-3.119-2.727-7.857-2.409-10.583,0.71c-2.074,2.372-5.203,3.732-8.584,3.732s-6.511-1.36-8.583-3.732
	c-2.727-3.119-7.464-3.438-10.583-0.71c-3.119,2.726-3.437,7.464-0.71,10.583C105.243,278.26,112.488,281.489,120.198,281.489z"/>
<path d="M468.708,141.13H314.9c-23.872,0-43.292,19.421-43.292,43.293c0,20.237,3.033,38.731,9.503,57.875
	c0.154,0.456,0.309,0.915,0.464,1.375h-51.149c0.155-0.46,0.311-0.92,0.465-1.376c6.486-19.202,9.503-37.582,9.503-57.873
	c0-23.872-19.421-43.292-43.293-43.292H43.293C19.421,141.13,0,160.55,0,184.422c0,20.24,3.035,38.727,9.506,57.874
	c6.002,17.756,12.781,37.833,13.12,81.983c-2.654,2.346-6.749,6.239-10.702,11.1c-11.38,13.996-0.896,35.49,16.99,35.49
	c0,0,182.343,0,182.563,0c17.933,0,28.351-21.515,16.99-35.49c-3.951-4.859-8.044-8.75-10.698-11.097
	c0.067-8.76,0.385-16.582,0.903-23.616h74.654c0.518,7.033,0.836,14.856,0.903,23.616c-2.654,2.346-6.747,6.237-10.698,11.096
	c-11.375,13.989-0.908,35.491,16.99,35.491c0,0,182.221,0,182.562,0c17.881,0,28.328-21.546,16.991-35.49
	c-3.952-4.862-8.047-8.755-10.702-11.101c0.339-44.148,7.118-64.225,13.12-81.981c6.409-18.953,9.508-37.898,9.508-57.875
	C512,160.551,492.58,141.13,468.708,141.13z M314.9,156.13h153.808c15.374,0,27.923,12.326,28.285,27.615H286.616
	C286.977,168.456,299.526,156.13,314.9,156.13z M43.293,156.13h153.808c15.374,0,27.924,12.326,28.285,27.615H85.652
	c-4.142,0-7.5,3.358-7.5,7.5s3.358,7.5,7.5,7.5h139.551c-0.277,5.215-0.857,10.134-1.764,14.963H16.957
	c-0.907-4.83-1.487-9.75-1.764-14.963h40.459c4.142,0,7.5-3.358,7.5-7.5s-3.358-7.5-7.5-7.5H15.008
	C15.369,168.456,27.919,156.13,43.293,156.13z M219.582,228.708c-0.915,2.906-1.895,5.805-2.901,8.784
	c-6.185,18.298-13.152,38.913-13.867,82.757l-165.231-0.001c-0.714-43.842-7.681-64.457-13.866-82.755
	c-1.007-2.979-1.987-5.878-2.901-8.785L219.582,228.708L219.582,228.708z M217.661,351.949c-0.438,0.92-2.176,3.92-6.182,3.92
	c0,0-182.34,0-182.563,0c-5.417,0-8.981-6.563-5.352-11.027c3.479-4.279,7.152-7.71,9.303-9.593h174.66
	c2.154,1.885,5.826,5.315,9.303,9.592C219.229,347.792,218.21,350.795,217.661,351.949z M220.206,285.666
	c0.013-0.102,1.363-9.272,2.283-13.707c0.006-0.027,0.011-0.053,0.017-0.08c0.982-4.826,2.064-9.176,3.195-13.207h60.6
	c1.134,4.044,2.22,8.409,3.208,13.271c0.923,4.544,1.678,9.127,2.286,13.723H220.206z M489.217,351.923
	c-1.078,2.247-3.33,3.946-6.132,3.946H300.519c-5.573-0.002-8.892-6.668-5.348-11.027c3.479-4.279,7.152-7.71,9.303-9.593H479.14
	c2.141,1.87,5.79,5.279,9.302,9.6C490.202,347.018,490.268,349.732,489.217,351.923z M488.284,237.493
	c-6.186,18.298-13.152,38.913-13.867,82.755h-165.23c-0.714-43.842-7.681-64.457-13.867-82.755
	c-1.007-2.979-1.987-5.878-2.902-8.786h143.234c4.142,0,7.5-3.358,7.5-7.5s-3.358-7.5-7.5-7.5H288.561
	c-0.906-4.83-1.486-9.75-1.764-14.963h210.01c-0.277,5.214-0.857,10.133-1.764,14.963h-29.391c-4.142,0-7.5,3.358-7.5,7.5
	s3.358,7.5,7.5,7.5h25.534C490.271,231.615,489.291,234.514,488.284,237.493z"/>
<g>
</g>
<g>
</g>
<g>
</g>
<g>
</g>
<g>
</g>
<g>
</g>
<g>
</g>
<g>
</g>
<g>
</g>
<g>
</g>
<g>
</g>
<g>
</g>
<g>
</g>
<g>
</g>
<g>
</g>
</svg>
